<svg width="120" height="105" viewBox="0 0 120 105" fill="none" xmlns="http://www.w3.org/2000/svg">
<path d="M59.4353 104.893C95.9985 104.893 119.011 84.0272 119.011 52.4466C119.011 20.8659 95.9985 3.8147e-05 59.4353 3.8147e-05C22.8721 3.8147e-05 -4.57764e-05 20.8659 -4.57764e-05 52.4466C-4.57764e-05 84.0272 22.862 104.893 59.4353 104.893ZM59.4353 20.453C75.5372 20.453 86.6869 28.3985 90.3332 42.0136C86.9381 37.9251 78.8319 33.051 59.5056 33.051C40.1793 33.051 32.2238 37.774 28.7182 41.8223C32.3745 28.3179 43.4037 20.453 59.4353 20.453Z" fill="#33CC99"/>
</svg>
