<svg width="118" height="114" viewBox="0 0 118 114" fill="none" xmlns="http://www.w3.org/2000/svg">
<path d="M91.1789 15.3272C62.1995 -6.96771 31.2368 -4.46209 11.9801 20.5683C-7.27666 45.5986 -1.76034 76.1689 27.2191 98.4637C56.1985 120.759 87.0498 118.167 106.307 93.1369C125.563 68.1065 120.158 37.622 91.1789 15.3272ZM39.6905 82.2531C24.7152 70.732 21.8283 54.6999 32.0308 39.577C32.3206 39.711 32.6104 39.845 32.902 39.9931C32.6254 40.0726 32.4045 40.1949 32.2633 40.3785C30.4703 42.7091 40.129 53.1512 53.8465 63.7045C67.564 74.2578 80.1334 80.9166 81.9264 78.586C82.129 78.3226 82.1822 77.957 82.1099 77.5074C82.3919 77.915 82.6183 78.2797 82.7828 78.6095C70.7908 92.3684 54.65 93.7619 39.6746 82.2408L39.6905 82.2531ZM39.1636 36.0053C42.9768 38.2148 41.2851 41.8304 46.1097 37.9314C47.3825 36.903 50.7211 34.4909 52.4241 35.4072C55.9741 37.2998 50.5624 41.4841 49.6187 43.1721C48.2521 45.6402 49.6249 50.1651 52.0511 46.5173C52.7143 45.6553 53.2219 45.1437 53.3894 44.0528C53.6577 42.3534 53.7123 40.3879 55.0737 39.0466C57.1484 37.0089 59.7505 37.6131 60.8181 39.273C62.585 42.0173 59.2583 50.4103 66.0739 47.5475C67.971 46.7454 69.779 43.7528 71.5792 43.4226C73.702 43.0355 75.0696 46.4635 75.2598 48.16C75.4998 50.3521 74.1503 52.4523 72.2848 53.4439C69.9291 54.6937 68.124 58.3745 71.9237 59.646C74.5683 60.5244 75.8807 57.303 78.0911 56.9833C80.3358 56.6519 81.8678 58.9106 81.1151 61.1903C80.1969 63.9653 77.3703 62.5657 75.9654 64.2929C72.325 68.8106 91.9331 71.7237 82.6578 77.1412C80.0106 78.6876 81.0817 76.6529 79.4062 75.3384C77.291 73.673 77.1776 75.5171 74.7428 75.9309C74.6581 75.942 74.5815 75.9593 74.503 75.9624C73.6282 75.5181 72.7117 75.0291 71.7519 74.4812C71.2531 72.3949 72.4451 68.8522 69.507 68.2563C67.3491 67.8159 67.1976 69.8085 66.2586 71.1444C62.7538 68.88 58.921 66.1854 55.004 63.172C54.7014 62.9392 54.3909 62.7003 54.0964 62.4737C54.394 60.8349 55.275 59.3273 55.6406 57.7154C55.9655 56.2883 55.6974 54.9893 54.2337 54.3715C53.3539 53.9996 52.2458 54.3032 51.3737 54.5472C49.7891 54.9925 48.2616 55.8249 46.6756 56.3708C42.3685 52.6125 38.8463 49.1023 36.4794 46.2649C38.2392 46.399 40.0609 46.5681 40.2921 44.6367C40.6269 41.7306 34.7295 42.7078 33.4827 40.7703C33.2325 40.3872 33.0907 40.0113 33.0213 39.6403C32.5339 36.8639 36.7231 34.5979 39.1575 36.0133L39.1636 36.0053Z" fill="#33CC99"/>
</svg>
