<svg width="120" height="106" viewBox="0 0 120 106" fill="none" xmlns="http://www.w3.org/2000/svg">
<path d="M59.5759 0.768372C23.0027 0.768372 0 21.6443 0 53.2149C0 84.7855 23.0127 105.661 59.5759 105.661C96.1392 105.661 119.011 84.7956 119.011 53.2149C119.011 21.6342 96.1392 0.768372 59.5759 0.768372ZM77.1444 28.7539C79.6154 28.7539 81.6244 33.6079 81.6244 39.6098C81.6244 45.6118 79.6154 50.4657 77.1444 50.4657C74.6733 50.4657 72.6644 45.6118 72.6644 39.6098C72.6644 33.6079 74.6733 28.7539 77.1444 28.7539ZM41.8769 28.7539C44.348 28.7539 46.3569 33.6079 46.3569 39.6098C46.3569 45.6118 44.348 50.4657 41.8769 50.4657C39.4059 50.4657 37.3969 45.6118 37.3969 39.6098C37.3969 33.6079 39.4059 28.7539 41.8769 28.7539ZM59.5759 85.2085C43.4741 85.2085 32.3243 77.2629 28.678 63.6478C32.0732 67.7364 40.1794 72.6104 59.5056 72.6104C78.8319 72.6104 86.7874 67.8874 90.2931 63.8391C86.6367 77.3435 75.6075 85.2085 59.5759 85.2085Z" fill="#33CC99"/>
</svg>
