<svg width="119" height="112" viewBox="0 0 119 112" fill="none" xmlns="http://www.w3.org/2000/svg">
<path d="M33.7885 10.4449C2.00463 28.5587 -7.70873 58.0979 7.86724 85.5505C23.4432 113.003 53.7391 119.741 85.523 101.627C117.307 83.5131 126.898 54.0437 111.322 26.591C95.7461 -0.861642 65.5724 -7.6689 33.7885 10.4449ZM84.726 76.6992C83.2564 78.2434 81.4299 79.4233 79.3828 80.0107C77.8855 80.447 76.192 81.1689 74.4718 82.1492C72.7516 83.1295 71.258 84.224 70.127 85.2856C68.5717 86.7397 66.6309 87.7183 64.5554 88.1945C51.3866 91.2162 39.4161 85.5964 31.6877 71.9751C26.8252 63.4049 25.5396 55.0088 27.5779 47.522C28.7991 43.0147 32.5575 39.5984 37.1482 38.7894C40.0848 38.2626 43.7981 36.8647 47.5703 34.7149C47.7536 34.6104 43.6761 24.1447 42.9303 20.0401C42.9106 19.9239 44.02 19.7203 44.8999 18.3384C44.994 20.5206 48.6169 34.0952 48.7167 34.0268C51.954 32.0544 54.621 29.8509 56.3756 27.8315C59.439 24.29 64.2977 22.7722 68.7933 24.0562C76.1668 26.1561 82.6416 31.56 87.5141 40.1477C95.2425 53.769 94.0105 66.913 84.7297 76.6855L84.726 76.6992Z" fill="#33CC99"/>
</svg>
