<svg width="117" height="116" viewBox="0 0 117 116" fill="none" xmlns="http://www.w3.org/2000/svg">
<path d="M93.4743 19.1722C66.4772 -5.54079 35.5486 -5.59332 14.2912 17.7323C-6.96617 41.058 -4.11191 71.9164 22.8853 96.6295C49.8824 121.342 80.9149 121.49 102.165 98.1719C123.416 74.8536 120.471 43.8853 93.4743 19.1722ZM82.4334 31.3919C83.2418 32.132 83.2914 33.3912 82.5596 34.1943C82.3089 34.4694 82.0043 34.6543 81.6817 34.7545C81.0365 34.9549 80.3049 34.8172 79.7635 34.3216C79.2221 33.826 79.0104 33.073 79.1716 32.3886C79.2501 32.0786 79.4002 31.7795 79.6374 31.5193C80.376 30.7088 81.6324 30.6587 82.4334 31.3919ZM77.8248 32.6424C77.3746 33.2259 77.79 34.3972 78.7764 35.3002C79.7629 36.2032 80.9644 36.5119 81.5035 36.0099C93.1369 47.8455 94.5708 62.3194 85.3943 75.3593L38.4682 32.4035C50.5817 22.0521 65.0204 22.1215 77.8248 32.6424ZM83.005 80.4143L33.661 35.2452L35.6939 33.0145L85.0379 78.1836L83.005 80.4143Z" fill="#33CC99"/>
</svg>
