<svg width="111" height="120" viewBox="0 0 111 120" fill="none" xmlns="http://www.w3.org/2000/svg">
<path d="M102.374 36.6691C86.0561 3.86503 57.1606 -7.45734 28.9604 6.63301C0.760075 20.7234 -7.61367 50.6786 8.69974 83.4737C25.0131 116.269 53.8503 127.474 82.0596 113.379C110.269 99.2844 118.687 69.4642 102.374 36.6691ZM99.5154 79.111C99.0524 79.2186 98.5851 79.2722 98.1088 79.2852C97.6999 79.2983 97.327 79.2258 96.9181 79.2164C92.3087 78.6623 87.6901 78.2252 83.0535 77.8647C81.791 77.7643 74.2205 77.1936 72.7602 77.147C71.5021 77.1232 70.145 77.2164 69.151 77.9943C68.5618 78.4574 68.3183 79.0965 67.8952 79.6679C67.4316 80.2932 66.8558 80.7834 66.2128 81.1609L69.9864 88.747L69.8515 88.8144C52.0734 97.6973 35.8417 92.1513 26.9814 74.3392C18.121 56.5272 23.4129 40.0807 41.191 31.1978L41.3259 31.1304L60.512 69.7007C60.512 69.7007 60.5435 69.6962 60.557 69.7007C60.9209 69.6876 61.2849 69.6744 61.6534 69.6703C62.552 69.6712 63.4416 69.7442 64.3085 69.9522C65.6067 70.2598 66.8191 70.8914 67.6131 71.9008C68.304 72.7705 68.7475 73.82 69.6947 74.4829C70.8754 75.2991 72.5066 75.2377 73.9085 75.2572C74.9823 75.2718 82.0818 75.2567 83.4074 75.2356C85.699 75.193 87.9863 75.0287 90.2826 74.8375C92.17 74.6819 94.0486 74.4407 95.9405 74.2716C98.0795 74.0802 101.463 74.0883 101.824 76.6416C102.011 77.943 100.742 78.8241 99.5154 79.111Z" fill="#33CC99"/>
</svg>
