<svg width="110" height="119" viewBox="0 0 110 119" fill="none" xmlns="http://www.w3.org/2000/svg">
<path d="M102.912 38.7184C88.4472 5.12715 60.1851 -7.74751 31.1794 4.74276C2.1736 17.233 -7.89855 46.6259 6.56232 80.2079C21.0232 113.79 49.2337 126.545 78.2487 114.05C107.264 101.556 117.373 72.3004 102.912 38.7184ZM97.6496 80.8592C97.1804 80.9409 96.7099 80.9686 96.2327 80.9553C95.823 80.9459 95.4541 80.8531 95.0456 80.8212C90.4663 80.0153 85.8713 79.3255 81.2538 78.7109C79.9966 78.5414 72.4564 77.5558 70.9983 77.4291C69.7413 77.3361 68.3785 77.3542 67.3402 78.0747C66.7246 78.5039 66.4449 79.1274 65.9893 79.6735C65.4901 80.2713 64.8865 80.7281 64.2219 81.0689L67.5669 88.8371L67.4282 88.8968C49.1423 96.771 33.2203 90.3502 25.3661 72.1107C17.5119 53.8713 23.7365 37.7718 42.0223 29.8976L42.1611 29.8379L59.1685 69.3337C59.1685 69.3337 59.2002 69.331 59.2134 69.3362C59.5782 69.3432 59.9431 69.3501 60.3119 69.3663C61.2107 69.4167 62.0964 69.5383 62.9518 69.7934C64.2329 70.1713 65.4098 70.8676 66.1469 71.9172C66.7887 72.822 67.1729 73.8924 68.0829 74.6052C69.2177 75.4836 70.8528 75.5123 72.2539 75.6088C73.3273 75.6825 80.4295 76.0583 81.7566 76.1102C84.0513 76.1939 86.3485 76.1561 88.6563 76.0919C90.553 76.0407 92.4457 75.9038 94.3477 75.8394C96.4982 75.7664 99.8821 75.9607 100.098 78.5252C100.212 79.8325 98.8932 80.6409 97.6496 80.8592Z" fill="#33CC99"/>
</svg>
