<svg width="119" height="112" viewBox="0 0 119 112" fill="none" xmlns="http://www.w3.org/2000/svg">
<path d="M34.2274 10.1628C2.17416 27.7934 -7.98327 57.1821 7.1772 84.8674C22.3377 112.553 52.5286 119.748 84.5818 102.117C116.635 84.4869 126.669 55.166 111.509 27.4807C96.3483 -0.204608 66.2806 -7.46785 34.2274 10.1628ZM78.1049 46.7042L88.373 65.4554C89.7508 67.9714 82.6557 74.5161 72.5201 80.0911C62.3846 85.666 53.0609 88.1409 51.6879 85.6337L41.4295 66.9002C36.6736 68.6776 31.2222 66.7365 28.7084 62.1459C25.948 57.1049 27.7868 50.7749 32.8149 48.0092C34.8667 46.8807 37.141 46.5142 39.2977 46.8328C38.3088 41.0932 40.9791 35.1098 46.3507 32.1553C51.7223 29.2007 58.0656 30.1342 62.366 33.9489C63.2741 32.071 64.7449 30.4464 66.7086 29.3663C71.7367 26.6006 78.0521 28.4455 80.8125 33.4864C83.3022 38.0329 82.0555 43.6238 78.0961 46.7091L78.1049 46.7042Z" fill="#33CC99"/>
</svg>
