<svg width="120" height="105" viewBox="0 0 120 105" fill="none" xmlns="http://www.w3.org/2000/svg">
<path d="M59.576 0C23.0128 0 0 20.8658 0 52.4465C0 84.0272 23.0128 104.893 59.576 104.893C96.1392 104.893 119.011 84.0272 119.011 52.4465C119.011 20.8658 96.1492 0 59.576 0ZM78.9223 21.5808C81.313 21.5808 83.2516 26.2736 83.2516 32.0641C83.2516 33.9774 83.0407 35.77 82.6691 37.3107C81.9257 35.0449 80.5295 33.5142 78.9223 33.5142C77.3151 33.5142 75.929 35.0449 75.1756 37.3107C74.804 35.77 74.593 33.9774 74.593 32.0641C74.593 26.2736 76.5316 21.5808 78.9223 21.5808ZM40.3501 21.5808C42.7408 21.5808 44.6795 26.2736 44.6795 32.0641C44.6795 33.9774 44.4685 35.77 44.0969 37.3107C43.3536 35.0449 41.9573 33.5142 40.3501 33.5142C38.743 33.5142 37.3568 35.0449 36.6034 37.3107C36.2317 35.77 36.0208 33.9774 36.0208 32.0641C36.0208 26.2736 37.9595 21.5808 40.3501 21.5808ZM59.586 84.4502C39.7274 84.4502 27.4024 72.3657 27.4024 52.4566C27.4024 52.4062 27.4024 52.3559 27.4024 52.3055H91.629C91.629 52.3559 91.629 52.4062 91.629 52.4566C91.629 72.3657 79.4346 84.4502 59.576 84.4502H59.586Z" fill="#33CC99"/>
</svg>
