<svg width="120" height="106" viewBox="0 0 120 106" fill="none" xmlns="http://www.w3.org/2000/svg">
<path d="M119.011 52.9922C119.011 84.5729 96.1392 105.439 59.576 105.439C23.0127 105.439 0 84.5729 0 52.9922C0 21.4115 23.0127 0.545654 59.576 0.545654C96.1392 0.545654 119.011 21.4115 119.011 52.9922ZM27.3822 52.9922C27.3822 72.9013 39.7073 84.9858 59.5659 84.9858C79.4246 84.9858 91.619 72.9013 91.619 52.9922C91.619 33.083 79.4346 20.9986 59.5659 20.9986C39.6972 20.9986 27.3822 33.083 27.3822 52.9922Z" fill="#33CC99"/>
<path d="M66.7681 50.5148C67.9032 50.2832 68.978 50.6961 70.0728 50.7867C71.3485 50.8975 72.6443 50.4645 73.7593 49.7394C74.5026 49.2561 75.1756 48.6518 75.7984 48.0073C76.0495 47.7455 76.3006 47.4635 76.5417 47.1916C78.7717 44.6338 80.6099 41.6428 81.3432 38.4203C81.6947 36.8997 81.7148 35.1475 80.64 34.1606C79.6958 33.2945 78.1991 33.3046 76.8631 33.5664C73.7894 34.1807 70.9267 35.8927 68.4255 37.9269C67.3708 38.7829 66.3562 39.7194 65.5627 40.8271C64.508 42.2974 63.9957 43.9288 64.277 45.6307C64.3975 46.3356 64.6888 46.9499 64.6185 47.7052C64.498 48.964 63.6241 50.0214 62.7301 50.9076C61.6954 51.9448 60.6307 52.9418 59.5458 53.9287C58.5715 53.0022 57.5871 52.0657 56.6128 51.1392C55.8092 50.3739 55.4275 49.3265 55.2768 48.2792C55.1261 47.242 55.2266 46.2551 54.5636 45.3286C54.0915 44.664 53.4085 44.1504 52.8158 43.5965C52.2031 43.0326 51.5702 42.4787 50.9876 41.8845C50.0434 41.0084 49.0992 40.1222 48.155 39.2461C47.2309 38.38 46.2967 37.514 45.3726 36.6479C44.6694 35.9934 43.2732 34.6439 42.5701 33.9793C42.2888 33.7174 42.0076 33.4556 41.7263 33.1938C41.7263 33.1938 41.4852 33.4355 41.1236 33.798L50.0032 42.7002C50.0736 42.7707 50.1238 42.8614 50.1539 42.9621L50.2041 43.1534C50.2644 43.375 50.0635 43.5763 49.8425 43.5159L49.7019 43.4857C49.5713 43.4555 49.4407 43.385 49.3403 43.2843L40.5008 34.4224C40.2999 34.6238 40.099 34.8252 39.8881 35.0367L48.7677 43.9389C48.838 44.0094 48.8883 44.1 48.9184 44.2007L48.9686 44.392C49.0289 44.6136 48.828 44.815 48.607 44.7546L48.4664 44.7244C48.3358 44.6942 48.2052 44.6237 48.1048 44.523L39.2653 35.661C39.0544 35.8725 38.8434 36.084 38.6526 36.2753L47.5322 45.1776C47.6025 45.2481 47.6528 45.3387 47.6829 45.4394L47.7331 45.6307C47.7934 45.8523 47.5925 46.0537 47.3715 45.9933L47.2309 45.963C47.1003 45.9328 46.9697 45.8623 46.8693 45.7616L38.0298 36.8997C37.6883 37.2421 37.4673 37.4636 37.4673 37.4636L37.5376 37.5341C37.8992 37.9269 38.2608 38.3196 38.6224 38.7124C39.2954 39.4374 40.6515 40.8573 41.3245 41.5925C42.1381 42.4787 42.9618 43.3649 43.7754 44.2511C44.569 45.1171 45.3726 45.9832 46.1661 46.8492C46.7789 47.5139 47.3916 48.1785 48.0043 48.8532C48.7075 49.6186 49.3704 50.4846 50.3548 50.8572C51.1082 51.1392 51.7912 50.9781 52.5446 51.0587C54.1216 51.2298 55.1261 52.1362 56.1507 53.3043C56.7534 53.9891 57.3561 54.6739 57.9688 55.3587C57.0246 56.2046 56.0703 57.0405 55.1261 57.8864C51.6606 60.988 48.165 64.0394 44.579 67C44.2978 67.282 43.9763 67.5036 43.7051 67.8057C43.3837 68.1581 43.1024 68.5408 42.8614 68.9537C42.2285 70.0413 41.9875 71.572 43.0422 72.3373C45.1315 73.8378 47.482 71.3907 48.818 69.709C50.0032 68.2286 51.1283 66.6979 52.3136 65.2176C53.75 63.4251 55.2165 61.6527 56.7735 59.9609C57.6675 58.984 58.6016 58.0475 59.5258 57.1009C60.4901 58.1784 61.4644 59.2459 62.4287 60.3335C65.4422 63.7171 68.3853 67.131 71.2481 70.6355C71.5193 70.9174 71.7403 71.2195 72.0316 71.4914C72.3731 71.8036 72.7448 72.0755 73.1466 72.3071C74.2113 72.9214 75.708 73.1329 76.4714 72.0755C77.9781 69.9809 75.5975 67.705 73.9702 66.4059C72.5238 65.2579 71.0472 64.1602 69.6007 63.0021C67.863 61.6023 66.1353 60.1824 64.4879 58.6719C63.3428 57.6145 62.2479 56.4966 61.1128 55.4191C61.8361 54.6336 62.5693 53.828 63.3127 53.0626C64.2971 52.0556 65.3819 50.827 66.7882 50.5451L66.7681 50.5148Z" fill="#33CC99"/>
</svg>
