<svg width="119" height="114" viewBox="0 0 119 114" fill="none" xmlns="http://www.w3.org/2000/svg">
<path d="M87.3416 12.6485C56.4565 -6.96497 25.8743 -1.68411 9.00885 24.9922C-7.85663 51.6686 0.439063 81.6387 31.3242 101.252C62.2093 120.866 92.6727 115.509 109.538 88.8329C126.404 62.1565 118.227 32.2619 87.3416 12.6485ZM46.2088 54.8748C46.8941 51.2328 53.4847 51.2097 56.9911 50.7421C62.273 50.0429 66.9696 48.2568 72.1441 47.3702C74.8091 46.9167 77.4205 47.0371 80.0805 48.0587C83.5053 49.3752 87.3372 51.308 89.1006 54.1803C90.9104 57.1298 91.4783 60.614 90.8353 63.7941C90.423 65.8569 89.5003 67.7865 88.0932 69.3727C87.4604 70.0914 86.7258 70.7456 85.8831 71.3073C77.4435 76.9634 64.5103 70.9558 56.2852 66.0782C52.4935 63.8372 45.399 59.165 46.2034 54.8833L46.2088 54.8748ZM28.2181 47.5749C29.1109 46.1628 30.5256 45.3921 31.9644 45.5428C32.5092 45.6027 33.0011 45.7839 33.4508 46.0695C34.8084 46.9316 35.1419 48.586 36.3003 49.6315C36.8096 50.0861 42.857 52.6151 43.3621 51.5529C43.0243 52.2564 42.7745 53.0277 42.6158 53.8806C42.2646 55.6962 44.1024 58.7708 44.6156 60.122C44.5444 59.9337 40.6407 58.3965 40.4172 58.3738C38.7018 58.1905 37.1516 58.1598 35.5922 59.0651C35.5206 59.103 35.4575 59.1464 35.386 59.1844C33.6752 60.2916 32.5293 62.3298 30.202 62.0798C29.621 62.0208 29.0813 61.8211 28.6061 61.5194C27.2825 60.6788 26.4296 58.9807 26.6288 57.1044C26.7137 56.3119 26.9728 55.5823 27.36 54.9698C27.516 54.7231 27.6974 54.4926 27.8904 54.2814L28.3311 53.8101L28.0173 53.2532C27.5434 52.4039 27.2934 51.351 27.3762 50.2233C27.6234 49.3431 27.8984 48.4567 28.2181 47.5749Z" fill="#33CC99"/>
</svg>
