<svg width="120" height="105" viewBox="0 0 120 105" fill="none" xmlns="http://www.w3.org/2000/svg">
<path d="M59.5759 0C23.0127 0 0 20.8658 0 52.4465C0 84.0272 23.0127 104.893 59.5759 104.893C96.1391 104.893 119.011 84.0272 119.011 52.4465C119.011 20.8658 96.1492 0 59.5759 0ZM48.0947 22.4469C48.2855 22.8396 48.4764 23.2223 48.7074 23.615C48.8983 23.9272 49.0992 24.2092 49.3001 24.4811C49.7822 25.1558 50.2443 25.7802 50.1237 26.5354C50.1941 26.6563 50.2543 26.7771 50.2744 26.7973C51.1985 28.4992 52.2131 30.1608 53.318 31.7519C54.433 33.3732 55.6484 34.9442 56.9241 36.4145C57.2355 36.777 57.5569 37.1395 57.8783 37.492C58.8728 38.5192 59.797 39.4557 60.6909 40.3319L60.932 40.5635L61.0927 40.7246C62.5994 42.1143 64.1765 43.3932 65.7736 44.5413C65.9846 44.6923 66.2055 44.8535 66.4366 45.0246C66.9388 45.3973 67.431 45.7598 67.8429 46.0216C67.9534 46.0921 68.1944 46.2029 68.4254 46.3036C68.6665 46.4144 68.9076 46.5151 69.1286 46.6359C69.3596 46.3539 69.5806 46.0619 69.8016 45.7699C70.1732 45.2965 70.5449 44.8132 70.9266 44.3499C71.0572 44.1082 71.2681 43.8766 71.5394 43.645C72.7749 42.2452 74.593 40.5836 77.2549 40.5836C77.9881 40.5836 78.7616 40.7145 79.5451 40.9663C82.5083 41.9028 85.351 44.4506 87.1591 47.7638C87.9124 49.1434 88.4448 50.5936 88.6959 51.9531C89.7406 57.5824 87.149 62.7183 81.9257 65.3769C80.0573 66.3235 77.9379 66.827 75.7883 66.827C73.0159 66.827 70.2838 65.9912 68.0337 64.4705C69.8016 68.257 69.9824 71.8421 68.5761 75.1149C68.2446 75.8903 67.8127 76.6658 67.2703 77.5016C66.085 79.3042 64.7591 80.704 63.1921 81.7916C63.0113 81.9124 62.8305 82.0433 62.6396 82.1642C60.6909 83.4633 58.2098 84.1883 55.6283 84.1883C52.0423 84.1883 48.6371 82.859 46.0154 80.4422C44.8402 79.3646 43.8457 78.0656 43.0522 76.5852L43.022 76.5449C42.57 75.7997 42.2084 75.0042 41.8468 73.9568C41.3847 72.5973 40.8825 70.5732 41.1637 68.6095C41.2642 65.3668 42.57 62.8291 44.8402 61.5099C46.0757 60.7949 47.5623 60.4223 49.2499 60.4223C49.5412 60.4223 49.8425 60.4223 50.1237 60.4122C50.2041 59.7979 50.2844 59.0023 50.0735 58.3679C49.9228 57.9449 49.7722 57.522 49.6215 57.099L49.5713 56.958C49.3201 56.2531 49.0489 55.528 48.828 54.7828C48.4161 53.3831 48.0746 52.1142 47.7933 50.8755C47.5623 49.8584 47.3714 48.8615 47.2208 47.9048C46.4775 43.3328 46.2163 38.3883 46.4574 33.5948C46.5177 32.4367 46.5478 31.188 46.5679 29.9694C46.4976 29.5666 46.3971 29.194 46.2866 28.8416C45.9752 27.8345 46.3167 26.9987 46.5578 26.4649C46.5578 26.4347 46.5578 26.4146 46.5578 26.3844C46.5578 26.2736 46.5377 26.1226 46.5578 25.9514C46.3067 25.6996 46.0556 25.468 45.7844 25.2364C45.0109 24.5818 44.8201 23.8265 44.6995 23.2928C45.7342 22.8396 46.819 22.4469 47.934 22.1145C47.9943 22.2354 48.0545 22.3562 48.1148 22.4871L48.0947 22.4469Z" fill="#33CC99"/>
<path d="M49.3 46.2734C49.5611 47.6933 49.8223 49.0125 50.0935 50.2613L50.194 50.7245V50.7849C50.7264 52.8191 51.3893 54.7829 52.1728 56.6056C52.2732 56.8372 52.3737 57.089 52.4741 57.3508C52.7052 57.9148 52.9462 58.519 53.1773 58.9721C53.2375 59.093 53.4284 59.3447 53.569 59.526C53.6795 59.667 53.78 59.8181 53.8804 59.959C54.1315 59.8986 54.3726 59.8281 54.6137 59.7576C54.8648 59.6771 55.1059 59.5764 55.3571 59.4656C55.7287 59.3045 56.1606 59.1232 56.6226 59.0124C56.9541 58.9419 57.2756 58.8815 57.6071 58.8211L57.7477 58.7909C57.9084 58.7607 58.0591 58.7405 58.2098 58.7103C58.7522 58.5995 59.3046 58.5492 59.837 58.5492C61.0123 58.5492 62.1674 58.811 63.2422 59.3246C61.9464 56.9782 61.7456 54.6922 62.6898 52.7688C63.5034 51.0971 64.8494 50.1606 66.1753 49.2643C66.1853 49.083 66.2155 48.9118 66.2356 48.7709V48.6903V48.65C65.9443 48.1264 65.5425 47.4214 64.99 46.9683C64.6686 46.7064 64.3371 46.4446 64.0056 46.1928L63.9253 46.1324L63.8751 46.0921C63.2824 45.6289 62.6696 45.1455 62.077 44.642C61.0223 43.7256 60.058 42.8495 59.1439 41.9734C58.4307 41.2785 57.7276 40.5736 57.0747 39.8686C54.5333 37.1496 52.0623 34.0782 49.9027 30.9261C49.8525 31.4498 49.7118 31.9634 49.2899 32.3561C49.2899 32.4266 49.2698 32.4971 49.2698 32.5576L49.2498 32.6784C48.9685 34.7126 48.8178 36.7569 48.7877 38.7609C48.7576 40.7951 48.858 42.8293 49.089 44.8233C49.1493 45.3167 49.2096 45.8001 49.2899 46.2935L49.3 46.2734Z" fill="#33CC99"/>
</svg>
