<svg width="120" height="106" viewBox="0 0 120 106" fill="none" xmlns="http://www.w3.org/2000/svg">
<path d="M59.5759 0.893097C23.0127 0.893097 0 21.7589 0 53.3396C0 84.9203 23.0127 105.796 59.5759 105.796C96.1391 105.796 119.011 84.9304 119.011 53.3396C119.011 21.7489 96.1391 0.893097 59.5759 0.893097ZM91.4683 49.5834H87.0586C67.7625 45.2531 76.16 40.9128 87.9526 36.5724C89.8712 40.3085 91.0765 44.669 91.4783 49.5834H91.4683ZM87.4001 35.5654C74.2916 40.238 62.9008 44.9107 83.101 49.5834H76.622C55.0859 44.377 71.7704 39.1807 86.4158 33.9743C86.7673 34.4879 87.0887 35.0216 87.4001 35.5654ZM85.7628 33.0176C70.6152 38.5462 50.4954 44.0648 72.7448 49.5834H66.2959C42.9919 43.5311 69.3496 37.4788 84.5072 31.4164C84.9391 31.93 85.361 32.4637 85.7628 33.0075V33.0176ZM83.6132 30.4295C69.0281 36.8141 38.5119 43.1987 62.4488 49.5834H56.0803C31.0988 42.6147 69.4701 35.646 81.775 28.6672C82.4179 29.2211 83.0306 29.8052 83.6132 30.4295ZM76.9234 25.3238C78.1288 25.9784 79.2738 26.7035 80.3486 27.5091C70.5047 34.8705 26.6188 42.2219 52.2432 49.5834H45.9049C19.035 41.4868 74.1008 33.4003 76.9234 25.3138V25.3238ZM73.7291 23.8334C77.6567 32.4134 14.3541 41.0034 42.118 49.5934H35.8299C7.3729 40.369 81.5541 31.1445 66.7178 21.9301C69.219 22.343 71.5695 22.9774 73.7291 23.8334ZM48.4965 22.8163C50.7666 26.1798 42.8915 29.5433 33.4292 32.9068C37.0253 28.0529 42.1381 24.6189 48.4965 22.8163ZM32.3745 34.4375C44.1671 30.359 55.5279 26.2805 51.0178 22.202C52.3537 21.9301 53.7499 21.7186 55.1863 21.5777C63.4131 26.6632 45.1315 31.7487 30.9984 36.8443C31.4202 36.0085 31.8823 35.2129 32.3745 34.4375ZM30.2852 38.3549C44.6895 32.7054 68.0538 27.0559 57.8783 21.4064C58.4408 21.3863 59.0134 21.3762 59.586 21.3762C60.7411 21.3762 61.8762 21.4165 62.9711 21.4971C75.3061 28.1536 40.32 34.8101 29.12 41.4666C29.4615 40.3891 29.8533 39.3619 30.2852 38.3549ZM27.7539 47.7103C28.7584 48.3346 30.1747 48.9691 32.0631 49.6035H27.5429C27.5932 48.9691 27.6635 48.3346 27.7438 47.7103H27.7539ZM91.629 53.3598C91.629 73.2689 79.4346 85.3533 59.586 85.3533C39.7374 85.3533 27.4023 73.2689 27.4023 53.3598V53.2087H91.6391V53.3598H91.629Z" fill="#33CC99"/>
</svg>
