<svg width="120" height="108" viewBox="0 0 120 108" fill="none" xmlns="http://www.w3.org/2000/svg">
<path d="M73.498 104.503C108.815 95.0188 125.655 68.8946 117.5 38.39C109.344 7.88536 81.7274 -6.30007 46.41 3.18427C11.0927 12.6686 -5.61164 38.7563 2.54389 69.261C10.6994 99.7656 38.1806 113.987 73.498 104.503ZM33.7403 58.8712C36.1508 54.4289 42.362 44.3266 46.5478 42.285C50.9437 40.1349 55.1277 42.7542 57.1155 46.3385C59.1033 49.9228 63.0362 55.5703 76.6808 54.0954C92.135 52.4266 93.4163 65.2709 83.5491 69.6722C83.5491 69.6722 56.2098 75.4294 43.5924 74.0949C38.7226 73.5782 35.7971 71.4655 34.226 68.8953C36.4249 68.5237 39.989 67.0349 40.9216 66.7114C44.8754 65.3578 48.5691 64.6264 52.6851 64.6575C53.8621 64.6646 59.3423 64.8194 58.5155 62.8937C58.457 62.753 58.3643 62.6007 58.2276 62.4393C56.1272 59.834 50.7249 62.4211 48.9064 58.6141C47.8657 56.4332 49.3556 52.1651 46.2406 51.0938C42.7359 49.8873 42.3539 57.2878 40.998 59.1011C38.989 61.7778 36.0003 63.8628 33.7207 66.3828C33.5534 66.5737 33.4099 66.7374 33.2762 66.8984C32.2741 63.9669 32.6622 60.8288 33.7209 58.8764L33.7403 58.8712ZM89.883 54.272C88.9856 53.3662 87.9437 52.6972 86.856 52.2074C83.7768 50.8032 80.4088 50.7694 77.2989 51.1562C61.8321 53.0891 58.2157 45.9804 56.5019 41.5928C54.8335 37.2972 50.8652 34.3177 46.191 37.0221C46.01 37.1228 45.8315 37.2333 45.6628 37.3412C44.1318 38.3049 42.7169 39.5085 41.4562 40.9C40.131 42.361 38.9924 44.0534 37.9917 45.8338C36.5391 48.4133 35.2426 51.1489 33.9507 53.8625C33.7719 54.2441 32.1661 58.4286 31.527 57.0885C31.4686 56.9478 31.4192 56.763 31.3788 56.534C31.2039 55.4133 31.62 54.3633 31.9299 53.3834C32.7652 50.7508 33.6832 48.1168 34.8313 45.6817C37.2092 40.6122 40.4291 35.619 44.0827 31.7812C44.5925 31.2377 45.1445 30.735 45.7191 30.2783C46.4405 29.7093 47.2021 29.2128 47.9994 28.811C51.9621 26.8294 55.9076 29.1791 57.5091 34.2746C59.1236 39.4187 62.6011 47.6803 78.4048 44.6352C80.768 44.1778 83.3167 44.1814 85.7069 45.1868C88.2519 46.2653 90.3363 48.4996 91.5564 51.3517C91.7823 51.8853 92.1042 52.6225 92.3983 53.4506C92.5137 55.0877 92.5112 56.673 92.4031 58.2138C91.5667 56.8745 90.9954 55.3599 89.8875 54.2499L89.883 54.272Z" fill="#33CC99"/>
</svg>
