<svg width="109" height="120" viewBox="0 0 109 120" fill="none" xmlns="http://www.w3.org/2000/svg">
<path d="M103.828 41.4925C91.1435 7.12375 63.6335 -7.26899 34.08 3.68706C4.52644 14.6431 -7.01636 43.5135 5.66823 77.8823C18.3528 112.251 45.8141 126.512 75.3676 115.556C104.921 104.6 116.513 75.8613 103.828 41.4925ZM71.5671 87.2318C71.1535 87.4173 70.7154 87.5368 70.2684 87.5737C68.1741 87.7919 66.1023 86.4454 64.3294 84.0221C57.4303 84.6905 50.5547 85.887 43.781 87.679C41.0551 88.4211 38.6192 86.7266 38.3 83.7428C37.5209 76.1745 36.7323 68.6096 35.9531 61.0413C35.7639 59.2223 36.4493 57.7123 37.6422 56.8515L37.3983 56.1905C36.9208 54.897 36.9759 53.6529 37.4357 52.6345C36.2302 50.355 37.0072 47.845 39.3162 46.6992C45.5246 43.5497 51.4272 39.891 57.0083 35.8255C56.6697 32.7309 57.3266 30.2439 59.0694 28.986C63.0208 26.1365 71.0877 30.606 77.0741 38.9595C80.9431 44.3627 83.0032 50.0607 82.9079 54.1857C81.9319 51.3381 80.3478 48.265 78.2164 45.2769C72.23 36.9233 64.1632 32.4539 60.2117 35.3034C58.4596 36.5648 57.812 39.0482 58.1507 42.1428C55.2221 44.2804 52.2164 46.2963 49.1114 48.1881C52.9806 47.1186 56.7836 45.8698 60.5273 44.4604C61.0224 41.3895 62.3109 39.1622 64.3276 38.4146C68.8982 36.7202 75.4813 43.178 79.0427 52.8277C81.3427 59.0594 81.8183 65.1088 80.6301 69.0592C80.4405 66.0489 79.7397 62.6699 78.4678 59.2236C74.9064 49.5739 68.3139 43.1195 63.7527 44.8104C61.7359 45.558 60.444 47.7759 59.9524 50.8562C54.2272 53.0216 48.3367 54.7975 42.3083 56.1414C48.6611 56.3732 54.9856 56.1217 61.2545 55.4292C62.5035 52.5725 64.2912 50.7398 66.4395 50.523C71.2776 50.0175 76.0665 57.9134 77.1228 68.1483C78.0294 76.9038 75.9082 84.5383 72.2519 86.8813C72.0303 87.0064 71.7957 87.1256 71.5741 87.2507L71.5671 87.2318Z" fill="#33CC99"/>
</svg>
