<svg width="120" height="108" viewBox="0 0 120 108" fill="none" xmlns="http://www.w3.org/2000/svg">
<path d="M43.7883 4.09337C8.93591 15.224 -6.61614 42.0809 3.0459 72.1261C12.7079 102.171 41.0277 115.017 75.8801 103.887C110.732 92.7559 126.15 65.9418 116.488 35.8966C106.826 5.85134 78.6406 -7.03725 43.7883 4.09337ZM49.8279 62.7321C47.472 59.8714 51.6793 54.7983 53.5682 51.8074C56.4176 47.3054 58.0576 42.5558 60.6943 38.0161C62.0547 35.68 63.8211 33.753 66.3104 32.3664C69.5163 30.5818 73.4562 28.8798 76.7912 29.3678C80.215 29.8696 83.2532 31.6673 85.2817 34.1995C86.6006 35.8384 87.49 37.7834 87.8053 39.8802C87.9513 40.8267 87.9824 41.8098 87.8733 42.8166C86.8041 52.9199 73.9023 58.9948 64.886 62.1806C60.7353 63.6541 52.6015 66.1039 49.8309 62.7417L49.8279 62.7321ZM32.6922 71.86C32.1807 70.2696 32.4962 68.6898 33.5342 67.6822C33.9294 67.3024 34.3838 67.041 34.8913 66.879C36.4233 66.3897 37.9067 67.1943 39.4518 66.9755C40.1272 66.876 45.9449 63.8559 45.4534 62.7874C45.7769 63.4976 46.2087 64.1837 46.7615 64.8523C47.9299 66.2858 51.4677 66.8463 52.8337 67.3186C52.6436 67.2526 48.9613 69.2632 48.8006 69.4201C47.5602 70.6192 46.5428 71.7893 46.238 73.5664C46.2213 73.6457 46.2141 73.7219 46.1974 73.8012C45.9504 75.824 46.7801 78.01 45.0963 79.636C44.6786 80.0441 44.1793 80.3303 43.6431 80.5015C42.1495 80.9785 40.2995 80.5446 38.9872 79.1888C38.4333 78.6156 38.0394 77.9491 37.8176 77.2592C37.7283 76.9814 37.6676 76.6944 37.6292 76.4108L37.55 75.7705L36.9214 75.6544C35.9658 75.4736 34.9975 74.9905 34.185 74.204C33.668 73.45 33.164 72.6707 32.6922 71.86Z" fill="#33CC99"/>
</svg>
