<svg width="120" height="106" viewBox="0 0 120 106" fill="none" xmlns="http://www.w3.org/2000/svg">
<path d="M59.5759 0.336304C23.0127 0.336304 0 21.2021 0 52.7828C0 84.3635 23.0127 105.229 59.5759 105.229C96.1392 105.229 119.011 84.3635 119.011 52.7828C119.011 21.2021 96.1392 0.336304 59.5759 0.336304ZM73.7292 67.0626C70.0427 77.3142 64.6988 84.8469 61.6753 84.1118C61.4142 84.4239 61.1229 84.6455 60.7813 84.7462C60.7512 84.7462 60.7211 84.7563 60.6809 84.7663C60.4398 84.7663 60.2088 84.7764 59.9677 84.7764C56.5926 84.2024 51.2588 75.1894 47.5221 63.4373C43.4741 50.6882 46.1058 38.5937 46.1058 38.5937C46.1058 38.5937 55.3069 47.1635 59.365 59.9026C60.2289 62.6216 60.9421 65.2701 61.4845 67.7675C61.8863 66.3577 62.3484 64.8975 62.8807 63.4171C66.6174 53.0044 75.0751 46.3982 75.0751 46.3982C75.0751 46.3982 77.4558 56.67 73.7191 67.0727L73.7292 67.0626ZM53.1774 32.3702C53.097 34.0116 53.0267 35.6531 52.9865 37.2946C52.3035 37.3147 51.6104 37.3349 50.9274 37.3449C51.1885 35.5927 51.52 33.9311 51.9017 32.4004C52.3236 32.3903 52.7555 32.3802 53.1774 32.3601V32.3702ZM52.2834 30.9704C52.6451 29.7116 53.0468 28.5535 53.4787 27.4961C53.3984 28.6441 53.318 29.7922 53.2578 30.9402C52.9363 30.9402 52.6149 30.9603 52.2834 30.9704ZM52.9464 38.7145C52.9162 40.356 52.8962 41.9974 52.8962 43.6389C52.856 43.6389 52.8158 43.6389 52.7756 43.6389C51.9921 42.5715 51.2287 41.6148 50.5155 40.7588C50.5859 40.0941 50.6461 39.4194 50.7264 38.7749C51.4698 38.7548 52.2031 38.7346 52.9464 38.7145ZM58.9632 25.8647C59.0034 27.5062 59.0436 29.1376 59.0838 30.779C57.7679 30.8193 56.442 30.8495 55.1261 30.8898C55.2165 29.2483 55.3371 27.6069 55.4676 25.9654C56.6328 25.9352 57.798 25.8949 58.9733 25.8647H58.9632ZM55.5882 24.5354C55.6183 24.193 55.6484 23.8607 55.6785 23.5183C56.6529 22.2494 57.7177 21.4237 58.8527 21.1014C58.8829 22.2092 58.903 23.327 58.9331 24.4347C57.8181 24.4649 56.7032 24.4951 55.5882 24.5253V24.5354ZM59.124 32.199C59.1642 33.8404 59.2043 35.4819 59.2445 37.1133C57.778 37.1536 56.3215 37.1939 54.8549 37.2342C54.9051 35.5927 54.9654 33.9512 55.0458 32.3097C56.4018 32.2695 57.7579 32.2393 59.124 32.199ZM59.2847 38.5332C59.3248 40.1747 59.365 41.8162 59.4153 43.4476C57.8684 43.4879 56.3214 43.5281 54.7745 43.5785C54.7745 41.937 54.7846 40.2955 54.8248 38.6541C56.3114 38.6138 57.8081 38.5735 59.2947 38.5332H59.2847ZM56.7433 49.8624C56.1105 48.7043 55.4576 47.6066 54.8046 46.5795C54.8046 46.0558 54.7846 45.5221 54.7745 44.9984C56.3315 44.9581 57.8884 44.9179 59.4454 44.8675C59.4855 46.2169 59.5157 47.5764 59.5559 48.9259C59.5559 49.2078 59.5659 49.4999 59.5759 49.7818C58.6317 49.812 57.6875 49.8322 56.7433 49.8624ZM59.6162 51.2018C59.6664 52.8432 59.7065 54.4847 59.7567 56.1161C59.7065 56.1161 59.6563 56.1161 59.6061 56.1161C58.9733 54.4041 58.2601 52.7828 57.4867 51.2521C58.1998 51.232 58.913 51.2118 59.6262 51.1917L59.6162 51.2018ZM61.6251 56.0658C61.585 54.4243 61.5347 52.7828 61.4945 51.1413C63.1921 51.091 64.8797 51.0507 66.5772 51.0004C66.5873 51.665 66.5772 52.3296 66.5873 52.9943C65.9645 53.9208 65.3518 54.9177 64.7692 55.965C63.7245 55.9953 62.6698 56.0255 61.6251 56.0557V56.0658ZM64.0058 57.4253C63.2825 58.8553 62.6095 60.3759 62.047 61.9871C61.9968 62.1281 61.9566 62.259 61.9064 62.4C61.8662 62.4 61.8361 62.4 61.7959 62.4C61.7457 60.7585 61.7055 59.1171 61.6552 57.4857C62.4387 57.4655 63.2222 57.4454 63.9957 57.4253H64.0058ZM61.4443 49.7315C61.4443 49.4495 61.4242 49.1575 61.4242 48.8755C61.384 47.5261 61.3539 46.1666 61.3137 44.8172C63.0013 44.7769 64.6888 44.7265 66.3763 44.6762C66.4366 46.0256 66.4868 47.3851 66.527 48.7345C66.527 49.0165 66.537 49.3085 66.5471 49.5905C64.8495 49.6409 63.1519 49.6811 61.4543 49.7315H61.4443ZM61.4343 43.5382C61.2937 41.9068 61.153 40.2754 61.0024 38.644C62.6095 38.503 64.2167 38.362 65.8239 38.211C66.0549 39.8323 66.2558 41.4637 66.4466 43.0951C64.7792 43.2462 63.1118 43.3972 61.4343 43.5483V43.5382ZM61.1128 37.0529C61.0727 35.4114 61.0325 33.77 60.9923 32.1385C62.4689 32.0983 63.9454 32.058 65.412 32.0177C65.5828 33.6491 65.7335 35.2906 65.8741 36.922C64.287 36.9623 62.6999 37.0126 61.1128 37.0529ZM60.9521 30.7186C60.9119 29.0772 60.8717 27.4357 60.8316 25.8043C62.1072 25.764 63.3729 25.7338 64.6486 25.6935C64.8696 27.3249 65.0705 28.9664 65.2614 30.5978C63.8249 30.6381 62.3885 30.6783 60.9621 30.7186H60.9521ZM60.8014 24.3743C60.7713 23.2665 60.7512 22.1487 60.7211 21.041C61.9968 21.323 63.2323 22.2494 64.3674 23.6996C64.3975 23.8909 64.4276 24.0822 64.4477 24.2736C63.2323 24.3038 62.0169 24.3441 60.8014 24.3743ZM68.1743 43.1958C68.094 41.5543 67.9835 39.9229 67.8629 38.2815C68.5058 38.2613 69.1487 38.2513 69.8016 38.2311C70.0828 39.792 70.3239 41.4335 70.5047 43.1253C69.7313 43.1455 68.9478 43.1656 68.1743 43.1857V43.1958ZM70.6454 44.5553C70.7358 45.5321 70.7961 46.5291 70.8563 47.5462C70.324 48.1303 69.7514 48.7949 69.1688 49.52C68.9177 49.52 68.6666 49.5402 68.4155 49.5402C68.4155 49.2481 68.4054 48.9661 68.3953 48.6842C68.3552 47.3247 68.3049 45.9752 68.2447 44.6258C69.0482 44.6057 69.8518 44.5855 70.6454 44.5654V44.5553ZM67.7424 36.8716C67.6118 35.2402 67.4511 33.5987 67.2804 31.9673C67.6119 31.9673 67.9433 31.9472 68.2748 31.9371C68.7369 33.4477 69.1587 35.0892 69.5103 36.8213C68.9177 36.8313 68.325 36.8515 67.7324 36.8615L67.7424 36.8716ZM67.1297 30.5474C67.0393 29.6914 66.9288 28.8355 66.8284 27.9795C67.1799 28.775 67.5114 29.631 67.8228 30.5273C67.5918 30.5273 67.3607 30.5374 67.1297 30.5474Z" fill="#33CC99"/>
</svg>
