<svg width="116" height="117" viewBox="0 0 116 117" fill="none" xmlns="http://www.w3.org/2000/svg">
<path d="M95.1324 21.7059C69.2783 -4.20577 38.2843 -5.76011 16.003 16.5708C-6.27831 38.9017 -4.72744 69.9648 21.1267 95.8765C46.9808 121.788 77.8754 123.243 100.157 100.912C122.438 78.581 120.987 47.6176 95.1324 21.7059ZM49.1685 33.1616C49.5946 33.5888 49.8005 34.2081 49.8004 34.9628C51.3634 34.4784 52.6491 34.5423 53.3878 35.2827C54.297 36.1938 54.1902 37.9382 53.2876 39.9959C56.6695 37.4892 59.9303 36.556 61.3012 37.9299C62.672 39.3038 61.7409 42.5577 59.2611 45.9399C60.5967 45.6122 61.6977 45.7331 62.3583 46.3951C62.7632 46.8009 62.9691 47.3775 62.9832 48.0753C66.6564 45.0773 70.379 43.8521 71.8635 45.3399C72.9502 46.429 72.5875 48.7003 71.1522 51.2921C72.7861 50.7507 74.1359 50.7932 74.903 51.562C75.7482 52.4092 75.7124 53.9684 74.9804 55.841C76.9909 55.264 78.7598 55.4274 79.8181 56.4881C81.1605 57.8335 81.082 60.2898 79.8668 62.9599C80.5985 62.9669 81.2094 63.1662 81.6285 63.5862C82.3671 64.3265 82.438 65.6223 81.9476 67.1816C82.7006 67.1815 83.3115 67.3807 83.7377 67.8078C85.2648 69.3383 83.9286 73.2259 80.7597 76.9999L39.9898 36.1391C43.7553 32.9632 47.6414 31.6311 49.1614 33.1545L49.1685 33.1616ZM35.5569 81.4141C21.5147 67.3406 21.3257 50.0611 35.3723 35.9832C35.4078 35.9476 35.4433 35.912 35.4788 35.8764L80.894 81.3927C80.8585 81.4283 80.8229 81.4639 80.7874 81.4995C66.7408 95.5774 49.5991 95.4875 35.5498 81.407L35.5569 81.4141Z" fill="#33CC99"/>
</svg>
