<svg width="120" height="106" viewBox="0 0 120 106" fill="none" xmlns="http://www.w3.org/2000/svg">
<path d="M59.576 0.770599C23.0127 0.770599 0 21.6465 0 53.2272C0 84.8079 23.0127 105.674 59.576 105.674C96.1392 105.674 119.011 84.8079 119.011 53.2272C119.011 21.6465 96.1392 0.78068 59.576 0.78068V0.770599ZM35.8099 46.6311C31.7116 45.8355 28.9392 42.3613 28.9392 42.3613C28.9392 42.3613 32.8064 40.186 36.9047 40.9816C38.0298 41.2031 39.0443 41.6161 39.9383 42.1095C37.9494 39.2697 35.4784 34.6272 38.522 33.9928C41.8769 33.2979 41.9171 38.8165 43.233 40.0551C43.6649 38.8366 44.2777 37.5577 45.1716 36.3593C48.0244 32.5326 52.5847 31.1126 52.6952 31.0724C52.645 31.0824 52.0725 35.0502 51.9821 35.3623C51.6707 36.4197 51.2287 37.4872 50.6662 38.464C49.3804 39.6322 48.2755 40.3875 47.1806 40.8406L45.4429 41.8779L47.4619 41.9081C50.3548 41.9484 53.2979 43.0058 55.7489 44.7983C53.8403 45.5536 51.7611 46.0772 49.7521 46.0772C48.3157 46.0772 45.4027 45.181 44.1069 44.5465C44.1069 44.5465 45.3926 46.3592 45.6839 46.9231C47.05 49.5112 47.492 51.3843 47.5724 54.3551C45.0109 53.8515 42.8613 51.4447 41.1035 47.0641L40.6816 46.0067L40.089 46.9735C38.5421 49.773 37.3266 51.4447 36.3824 52.5927C34.7351 53.9522 32.716 55.0096 31.1993 55.5232C30.7874 53.63 32.8165 49.3501 34.1625 47.8698C34.6647 47.3159 35.3076 46.9433 36.0007 46.6412C35.9404 46.6311 35.8802 46.621 35.8199 46.611L35.8099 46.6311ZM44.1772 62.4919C42.2988 60.3671 40.6615 57.5675 39.5566 54.9694C39.205 54.1436 38.8534 52.764 38.7731 51.485C39.2954 50.4478 39.868 49.4407 40.4707 48.5243C42.3591 52.7841 44.8402 55.3319 48.1148 55.6038L48.7376 55.6541V55.0197C48.6974 52.3007 48.4965 49.5213 46.9194 46.8929C47.8536 47.1346 48.7978 47.2454 49.7521 47.2454C52.3035 47.2454 54.8649 46.4901 57.1049 45.4931L57.9487 45.1105L57.2355 44.5163C54.9453 42.6231 52.203 41.3542 49.3503 40.9212C50.2443 40.4177 51.3291 39.8235 52.4341 39.1992C52.5044 39.1689 52.5747 39.1387 52.6551 39.1186C59.2746 36.9635 60.8918 45.3421 61.9566 50.0248C63.5236 56.8827 67.8228 62.502 75.2961 62.9552C79.515 63.217 82.1567 61.3238 84.7182 58.2523C86.1747 56.5001 88.4549 55.9059 89.4493 58.3127C90.6647 61.2533 88.2841 64.6671 86.5263 66.8021C83.3019 70.7396 78.9123 72.6126 74.2213 73.6801C72.3128 74.1131 67.3607 74.3246 65.0604 74.1333C53.9107 73.1967 49.5612 68.5744 44.1772 62.4819V62.4919Z" fill="#33CC99"/>
</svg>
