<svg width="68" height="64" viewBox="0 0 68 64" fill="none" xmlns="http://www.w3.org/2000/svg">
<g clip-path="url(#clip0_2415_4464)">
<path fill-rule="evenodd" clip-rule="evenodd" d="M17.5133 1.41553C13.0839 3.95585 8.31458 16.6419 7.94462 26.8865C7.42588 41.3744 13.6772 48.0176 28.4486 48.6412C36.2577 48.987 48.6137 49.1746 48.5538 49.3722C48.5388 49.4216 47.1987 50.4443 45.5602 51.6465C40.2993 55.4989 38.4402 57.8751 39.3413 59.5509C39.7051 60.2277 40.0854 60.0463 43.0593 57.6579C43.0916 57.6408 47.314 54.1746 55.2568 48.897C59.9156 45.779 57.9572 45.2659 53.7108 43.897C49.2733 42.4431 46.6457 41.1876 43.5545 39.4948C41.8129 38.535 39.603 36.9747 38.5191 39.2082C37.6519 40.9949 40.3666 43.5715 45.7786 45.8333C47.9201 46.7256 47.6767 46.8133 43.1105 46.5881C40.8683 46.4744 37.6676 46.3939 36.0187 46.3792C17.9337 46.3149 12.0028 41.1176 12.4882 25.7566C12.6514 20.304 15.0397 10.3748 17.0476 6.61447C19.1575 2.69635 19.3775 0.362703 17.5133 1.41553Z" fill="white"/>
</g>
<defs>
<clipPath id="clip0_2415_4464">
<rect width="55" height="50" fill="white" transform="translate(14.5117) rotate(16.8734)"/>
</clipPath>
</defs>
</svg>
